<svg viewBox="0 0 32 32" role="presentation" class="icon hero-bio-icon">
  <path fill="none" d="M20.8 8L17-3.8 13.2 8H.7l10.1 7.3-3.9 11.9L17 19.8l10.1 7.4-3.9-11.9L33.3 8z"></path>
  <path fill="none" d="M20.8 8L17-3.8 13.2 8H.7l10.1 7.3-3.9 11.9L17 19.8l10.1 7.4-3.9-11.9L33.3 8z"></path>
  <path d="M28.8 2.3c-.2-.2-.5-.1-.8 0 .6.2.9.6 1.3.9-.4 0-.6-.2-1-.3-.1 0-.3-.1-.4 0-.6.4-1.3.5-1.9 1l-.1.1c-.1 0-.8-.4-.8-.6-.1-.3-.1-.5.2-.7.6-.5 1.2-1.1 2-1.5.1 0 .2 0 .2-.1.1-.4.4-.6.9-.6h1.1c-.5-.4-1.2-.6-1.9-.6H5.3c-1.9 0-3.5 1.6-3.5 3.5v17.9c0 1.1.5 2 1.2 2.7v.3l4.4 2.5c.2-.3.6-.5 1.1-.4 1.1 0 2.1 0 3.2-.2.4-.1.9-.1 1.3 0 .5.1.8 0 .9-.5.3-.9.4-1.9.6-2.9 0-.2.1-.4.2-.5.1.7 0 1.4-.2 2.1-.1.5-.3.9-.2 1.4.1.4-.3.6-.5.8-.6.4-1.2.8-1.9 1.1-.6.3-1.1.5-1.7.9l6.1 3.5 13.4-7.7v-.2c.8-.6 1.3-1.6 1.3-2.7V3.6c0-.7-.2-1.4-.6-1.9-.4.2-.8.4-1.2.7-.1 0-.2 0-.4-.1zm-4.9 21.5l-7-5.1-7 5.1 2.7-8.3-7-5.1h8.7L17 2.1l2.7 8.3h8.7l-7 5.1 2.5 8.3z"></path>
</svg>
