<svg viewBox="0 0 32 32" role="presentation" class="icon hero-bio-icon">
  <path d="M30 16.4l-2.1 2.1-2.1-2.1h-1.7l-.6.6-3.1-3v-1.4h-3l-1.7-1.7-2.1 2.1h2.3l.9.9h2.4l4 4v1.3l-2.4 2.4v3.9l-2.9 2.9h-1.2l-1.9-1.9v-5L13.5 20h-2.1l-2.2-2.2v-2.3l3-2.5v-2.8l4.9-4.9 1.5 1.5H22l2.5-2.5c-2.4-1.7-5.3-2.8-8.5-2.8-3 0-5.7.9-8 2.4h6.4l-3 3h-2L8 8.4H6.8V4.8c-.7.6-1.4 1.3-2 2v3.1L2 12.8c-.2 1-.3 2-.3 3.1 0 .4 0 .8.1 1.2L8.3 22v2.3l-2 2c2.6 2.4 6.1 3.9 9.9 3.9 7.7 0 13.9-6 14.4-13.6l-.6-.2zm-7.9 8.8h-.8v-3.7h.8v3.7z"></path>
  <path fill="none" d="M29.9 16c0-7.6-6.2-13.8-13.8-13.8C8.4 2.2 2.2 8.4 2.2 16c0 4.8 2.4 9 6.1 11.5.4 0 .8-.1 1.2-.2s.8 0 1.2 0c.5 0 .7 0 .8-.5.3-.8.4-1.7.5-2.5 0-.2.1-.3.2-.5.1.6 0 1.2-.2 1.8-.1.4-.2.8-.1 1.3.1.4-.2.6-.5.7-.4.3-.9.6-1.4.8 1.8.9 3.8 1.4 6 1.4 7.7 0 13.9-6.2 13.9-13.8z"></path>
  <path d="M16 0C7.2 0 0 7.2 0 16c0 4.9 2.2 9.2 5.6 12.2.2-.5.5-.7 1.1-.6h1.6C4.6 25 2.2 20.8 2.2 16 2.2 8.4 8.4 2.2 16 2.2S29.8 8.4 29.8 16 23.6 29.8 16 29.8c-2.1 0-4.1-.5-6-1.4-.1 0-.2.1-.3.2-.7.3-1.3.7-2 1h-.1C10.2 31.2 13 32 16 32c8.8 0 16-7.2 16-16S24.8 0 16 0z"></path>
</svg>
