<svg viewBox="0 0 32 32" role="presentation" class="icon hero-bio-icon">
  <path fill="none" d="M27.8 20.1l-.1 1.2h.8c-.1-.3-.3-.6-.4-.9 0-.1-.1-.3-.3-.3z"></path>
  <path fill="none" d="M14.6 20.6c-.1.2-.2.5-.3.7h.7v-1.2c-.2.1-.3.3-.4.5z"></path>
  <path fill="none" d="M22 23.8l.3-.2h-.5z"></path>
  <path d="M31.1 19c-.8-2.2-2.1-2.4-4.1-3.2-.2-.1-.4-.2-.6-.4-.4 0-.6-.3-.8-.6-.7-.9-1.2-1.1-1.7-2.1-.4-.8-.3-1.4.3-2.1 1.3-1.4 1.5-3 1.3-4.8v-.2c-.1 0-.2-.1-.3-.1-.1 0-.3-.1-.4 0-.6.4-1.3-.2-1.9.3l-.1.1c-.1 0-.8 1-.8.8-.1-.3-.1-.5.2-.7.6-.5 1.2-1.1 1.9-1.5.1 0 .2 0 .2-.1.1-.3.4-.4.7-.5-.5-1-1.5-1.7-2.8-1.8-2.9-.3-4.1 1-4.4 2.3-.5 2.4-.8 4.2 1.1 6.2.3.4.6.8.4 1.3-.6 1.6-1.5 2.3-2.7 3.6-.1 0-.1-.1-.1-.1-.1.1-.2.2-.3.2-.4.2-.9.2-1.4.4-1.4.4-2.1 1.5-2.6 2.8l9.5 5.5h.5l8.9-5.1c.1-.1 0-.2 0-.2z"></path>
  <path d="M2.4 27.3c.3-.1.6 0 .9 0 .4 0 .5 0 .6-.4.1-.1.1-.3.2-.5-.3-.1-.5-.3-.5-.7V10.4c0-.4.3-.7.7-.7h8.8l.8-3.5H4.3C2 6.1.2 8 .2 10.3v15.4c0 .6.1 1.2.4 1.7.5.1 1.2.1 1.8-.1z"></path>
  <path d="M28.7 24.6v1.1c0 .4-.3.7-.7.7H4.3c0 .2-.1.4 0 .6.1.3-.2.4-.4.6-.4.3-.9.5-1.3.8-.3.2-.7.3-1 .5.7.7 1.7 1.1 2.8 1.1H28c2.3 0 4.2-1.9 4.2-4.2v-3.1l-3.5 1.9z"></path>
</svg>
