<svg viewBox="0 0 32 32" role="presentation" class="icon hero-bio-icon">
  <path d="M12.8 1.4L9.5 5.6l3.2 4.9 1.8.1-2.2-5 1.8-2.4.8.9h2.3l.7-1h.1l1.9 2.8-2.5 4.7h1.8l3.3-4.9-3.2-4.3z"></path>
  <g>
      <path d="M3.1 28c.4 0 .5 0 .6-.4.1-.2.1-.4.2-.6-.3-.1-.5-.3-.5-.7V11c0-.4.3-.7.7-.7h23.8c0-.2.1-.4 0-.6-.1-.3.2-.4.4-.6.4-.3.9-.5 1.3-.8.3-.2.7-.3 1-.5-.7-.7-1.7-1.1-2.8-1.1H4.2C1.9 6.8 0 8.7 0 11v15.5c0 .6.1 1.2.4 1.7.6 0 1.2 0 1.8-.1.3-.1.6-.1.9-.1z"></path>
      <path d="M31.6 9.3c-.6 0-1.2 0-1.8.1-.3.1-.6 0-.9 0-.4 0-.5 0-.6.4-.1.2-.1.4-.2.6.3.1.5.3.5.7v15.4c0 .4-.3.7-.7.7H4.1c0 .2-.1.4 0 .6.1.3-.2.4-.4.6-.4.3-.9.5-1.3.8-.3.2-.7.3-1 .5.7.7 1.7 1.1 2.8 1.1h23.6c2.3 0 4.2-1.9 4.2-4.2V11c0-.6-.1-1.2-.4-1.7z"></path>
  </g>
  <path d="M29.4 16.1l-.5-5.6-1.3-.3s-17.2-1-17.4-1-6.5.1-6.7.1-1 1.7-1 1.7l.6 5.2 3.5 3.1h9.2s-.1 0-.1-.1L11 14.4c-.2-.2.1-.6.3-.4l4.6 2.1c.1.1.2.1.3 0l4.6-2.1c.3-.2.6.2.3.4l-4.8 4.8s-.1 0-.1.1H25l4.4-3.2z"></path>
  <path d="M16.1 19.3h-.2.2z"></path>
  <path d="M28.9 28c-.4 0-.5 0-.6-.4-.1-.2-.1-.4-.2-.6.3-.1.5-.3.5-.7V11c0-.4-.3-.7-.7-.7H4.1c0-.2-.1-.4 0-.6.1-.3-.2-.4-.4-.6-.4-.2-.8-.5-1.3-.7-.4-.1-.7-.3-1-.5.7-.7 1.7-1.1 2.8-1.1h23.6c2.3 0 4.2 1.9 4.2 4.2v15.5c0 .6-.1 1.2-.4 1.7-.6 0-1.2 0-1.8-.1-.3-.1-.6-.1-.9-.1z"></path>
</svg>
